<svg xmlns="http://www.w3.org/2000/svg" version="1.1" xmlns:xlink="http://www.w3.org/1999/xlink" xmlns:svgjs="http://svgjs.dev/svgjs" width="2000" height="1247" viewBox="0 0 2000 1247"><g transform="matrix(1,0,0,1,-1.2121212121212466,115.29635104077192)"><svg viewBox="0 0 396 247" data-background-color="#1f0f53" preserveAspectRatio="xMidYMid meet" height="1247" width="2000" xmlns="http://www.w3.org/2000/svg" xmlns:xlink="http://www.w3.org/1999/xlink"><g id="tight-bounds" transform="matrix(1,0,0,1,0.2400000000000091,-0.09999999999999432)"><svg viewBox="0 0 395.52 247.2" height="247.2" width="395.52"><g><svg></svg></g><g><svg viewBox="0 0 395.52 247.2" height="247.2" width="395.52"><g transform="matrix(1,0,0,1,75.54432000000001,101.43196300231695)"><svg viewBox="0 0 244.43135999999996 44.336073995366085" height="44.336073995366085" width="244.43135999999996"><g><svg viewBox="0 0 378.50187247079975 68.65439453124999" height="44.336073995366085" width="244.43135999999996"><g><svg viewBox="0 0 378.50187247079975 68.65439453124999" height="68.65439453124999" width="378.50187247079975"><g id="textblocktransform"><svg viewBox="0 0 378.50187247079975 68.65439453124999" height="68.65439453124999" width="378.50187247079975" id="textblock"><g><svg viewBox="0 0 378.50187247079975 68.65439453124999" height="68.65439453124999" width="378.50187247079975"><g><svg><g></g><g></g></svg></g><g><svg><g><svg></svg></g><g></g></svg></g><g id="text-0"><svg viewBox="0 0 378.50187247079975 68.65439453124999" height="68.65439453124999" width="378.50187247079975"><g transform="matrix(1,0,0,1,0,18.074231657690323)"><svg width="244.43135999999996" viewBox="1.61 -41.94 319.04132977053195 42.43" height="32.505931215869346" data-palette-color="#ffdb99"><path d="M14.45 0.02L1.61-37.35 6.1-37.35 15.53-8.91 16.8-3.91 18.19-8.91 27.39-37.35 31.84-37.35 19.26 0.02 14.45 0.02ZM41.7-36.01L41.7-36.01Q40.06-36.01 39.6-36.47L39.6-36.47Q38.86-37.23 38.86-38.56 38.86-39.89 39.02-40.47 39.18-41.04 39.5-41.36L39.5-41.36Q40.09-41.94 41.29-41.94 42.5-41.94 43.03-41.82 43.55-41.7 43.89-41.36L43.89-41.36Q44.48-40.77 44.48-39.44 44.48-38.11 44.35-37.54 44.21-36.96 43.89-36.62L43.89-36.62Q43.28-36.01 41.7-36.01ZM39.77 0L39.72-29.05 43.72-29.05 43.72 0 39.77 0ZM56.39 0L56.34-41.5 60.37-41.85 60.37 0 56.39 0ZM85.88-25.73L85.88-25.73Q81.12-25.73 76.19-22.92L76.19-22.92 76.19 0 72.14 0 72.14-29.05 75.7-29.05 76.09-26.05Q78.75-28.22 82.71-29.15L82.71-29.15Q84.32-29.54 86.49-29.54 88.66-29.54 90.32-29.04 91.98-28.54 92.96-27.44L92.96-27.44Q94.74-25.46 94.74-20.24L94.74-20.24 94.74 0 90.64 0 90.64-19.48Q90.64-23 89.96-24.01 89.27-25.02 88.33-25.38 87.39-25.73 85.88-25.73ZM108.34-36.01L108.34-36.01Q106.7-36.01 106.24-36.47L106.24-36.47Q105.51-37.23 105.51-38.56 105.51-39.89 105.67-40.47 105.82-41.04 106.14-41.36L106.14-41.36Q106.73-41.94 107.94-41.94 109.15-41.94 109.67-41.82 110.2-41.7 110.54-41.36L110.54-41.36Q111.12-40.77 111.12-39.44 111.12-38.11 110.99-37.54 110.85-36.96 110.54-36.62L110.54-36.62Q109.93-36.01 108.34-36.01ZM106.41 0L106.36-29.05 110.37-29.05 110.37 0 106.41 0ZM144.08-29.05L144.08-12.79Q144.08-4.74 144.54-0.2L144.54-0.2 140.91 0.1 140.32-3.34Q137.46-0.98 133.65 0.07L133.65 0.07Q132.14 0.49 130.05 0.49 127.97 0.49 126.32-0.01 124.67-0.51 123.69-1.61L123.69-1.61Q121.91-3.59 121.91-8.81L121.91-8.81 121.91-29.05 126.01-29.05 126.01-9.47Q126.01-5.96 126.7-4.94 127.38-3.93 128.32-3.58 129.26-3.22 130.55-3.22 131.85-3.22 133.06-3.43 134.26-3.64 135.49-4.03L135.49-4.03Q138.05-4.86 140.12-6.3L140.12-6.3 140.12-6.32Q140.03-8.18 140.03-13.55L140.03-13.55 140.03-29.05 144.08-29.05ZM153.7-2.39L155.45-5.76Q160.48-2.95 165.56-2.95L165.56-2.95Q169.78-2.95 170.52-5.96L170.52-5.96Q170.76-6.98 170.76-8.46 170.76-9.94 170.42-10.75 170.08-11.57 169.27-11.98 168.47-12.38 167.14-12.57 165.81-12.77 163.75-13.12 161.7-13.48 159.99-13.92 158.29-14.36 157.09-15.19L157.09-15.19Q154.55-16.97 154.65-21.19L154.65-21.19 154.65-21.8Q154.65-26.25 157.58-28.13L157.58-28.13Q160.41-29.98 166.93-29.39L166.93-29.39Q171.37-28.98 174.01-27.86L174.01-27.86 172.86-24.17Q169.93-25.42 165.83-25.98L165.83-25.98Q164.56-26.15 163.45-26.15 162.34-26.15 161.44-25.98 160.53-25.81 159.92-25.34L159.92-25.34Q158.75-24.39 158.7-21.8L158.7-21.8Q158.63-18.75 160.41-17.92L160.41-17.92Q162.12-17.11 164.46-16.81 166.81-16.5 168.3-16.27 169.78-16.04 171.01-15.65 172.23-15.26 173.11-14.4L173.11-14.4Q174.94-12.67 174.89-8.37L174.89-8.37Q174.77-0.88 168.64 0.17L168.64 0.17Q166.78 0.49 164.93 0.49 163.07 0.49 161.52 0.26 159.97 0.02 158.55-0.39L158.55-0.39Q155.87-1.15 153.7-2.39L153.7-2.39ZM182.55-9.33L182.55-12.18 197.47-37.35 204.23-37.35 204.23-12.87 208.48-12.87 208.48-9.69 204.23-9.33 204.23 0 200.13 0 200.13-9.33 182.55-9.33ZM187.56-12.87L200.13-12.87 200.1-34.38 187.56-12.87ZM223.52-16.8L223.52-16.8 222.37-16.77 222.37 0 218.22 0 218.22-37.35 222.37-37.35 222.37-19.82Q223.73-19.82 224.15-20.03 224.56-20.24 225.13-20.64 225.69-21.04 226.79-22.3 227.89-23.56 229.13-25.17L229.13-25.17Q232.43-29.64 233.82-31.71L233.82-31.71 236.09-35.18Q236.97-36.57 237.41-37.38L237.41-37.38 242.24-37.38Q242.02-36.89 241.39-35.89L241.39-35.89Q239.26-32.62 237.99-30.86L237.99-30.86 233.31-24.54 231.18-21.92Q229.01-19.34 228.3-19.07L228.3-19.07 228.3-18.85 229.06-18.55Q230.74-17.92 233.38-14.43L233.38-14.43 244.12 0 238.82 0 230.99-11.08Q227.06-16.6 224.32-16.77L224.32-16.77Q223.93-16.8 223.52-16.8ZM254.1-36.01L254.1-36.01Q252.47-36.01 252-36.47L252-36.47Q251.27-37.23 251.27-38.56 251.27-39.89 251.43-40.47 251.59-41.04 251.91-41.36L251.91-41.36Q252.49-41.94 253.7-41.94 254.91-41.94 255.43-41.82 255.96-41.7 256.3-41.36L256.3-41.36Q256.89-40.77 256.89-39.44 256.89-38.11 256.75-37.54 256.62-36.96 256.3-36.62L256.3-36.62Q255.69-36.01 254.1-36.01ZM252.17 0L252.13-29.05 256.13-29.05 256.13 0 252.17 0ZM287.33 0.1L286.74-3.25Q281.59 0.49 276.27 0.49L276.27 0.49Q270.39 0.49 268.43-3.83L268.43-3.83Q267.31-6.27 267.17-9 267.04-11.72 267.04-13.78 267.04-15.84 267.08-17.94 267.11-20.04 267.38-21.83 267.65-23.61 268.22-25.04 268.8-26.46 269.87-27.47L269.87-27.47Q272.09-29.54 277.21-29.54 282.32-29.54 286.45-27.76L286.45-27.76 286.45-41.55 290.5-41.94 290.5-13.35Q290.5-4.93 290.97-0.2L290.97-0.2 287.33 0.1ZM286.43-13.55L286.45-24.41Q282.06-25.88 277.95-25.88L277.95-25.88Q274.98-25.88 274.02-25.39 273.07-24.9 272.57-24.12 272.07-23.34 271.75-21.97L271.75-21.97Q271.19-19.41 271.19-13.53L271.19-13.53 271.19-12.99Q271.19-7.5 272.39-5.4L272.39-5.4Q273.68-3.17 277.2-3.17L277.2-3.17 277.56-3.17Q280.93-3.17 284.74-5.32L284.74-5.32Q285.79-5.91 286.55-6.49L286.55-6.49 286.55-6.54Q286.43-8.81 286.43-13.55L286.43-13.55ZM299.46-2.39L301.22-5.76Q306.25-2.95 311.33-2.95L311.33-2.95Q315.55-2.95 316.28-5.96L316.28-5.96Q316.53-6.98 316.53-8.46 316.53-9.94 316.18-10.75 315.84-11.57 315.04-11.98 314.23-12.38 312.9-12.57 311.57-12.77 309.52-13.12 307.47-13.48 305.76-13.92 304.05-14.36 302.85-15.19L302.85-15.19Q300.31-16.97 300.41-21.19L300.41-21.19 300.41-21.8Q300.41-26.25 303.34-28.13L303.34-28.13Q306.17-29.98 312.69-29.39L312.69-29.39Q317.14-28.98 319.77-27.86L319.77-27.86 318.62-24.17Q315.7-25.42 311.59-25.98L311.59-25.98Q310.32-26.15 309.21-26.15 308.1-26.15 307.2-25.98 306.3-25.81 305.69-25.34L305.69-25.34Q304.51-24.39 304.46-21.8L304.46-21.8Q304.39-18.75 306.17-17.92L306.17-17.92Q307.88-17.11 310.23-16.81 312.57-16.5 314.06-16.27 315.55-16.04 316.77-15.65 317.99-15.26 318.87-14.4L318.87-14.4Q320.7-12.67 320.65-8.37L320.65-8.37Q320.53-0.88 314.4 0.17L314.4 0.17Q312.55 0.49 310.69 0.49 308.83 0.49 307.28 0.26 305.73 0.02 304.32-0.39L304.32-0.39Q301.63-1.15 299.46-2.39L299.46-2.39Z" opacity="1" transform="matrix(1,0,0,1,0,0)" fill="#000000" class="wordmark-text-0" data-fill-palette-color="primary"></path></svg></g><g><svg xmlns="http://www.w3.org/2000/svg" xmlns:xlink="http://www.w3.org/1999/xlink" version="1.1" x="260.64024671874995" y="0" viewBox="2.744175972439874 21.81785535900104 96.00368524012404 55.92214464099898" enable-background="new 0 0 100 100" xml:space="preserve" height="68.65439453124999" width="117.86162575204976" class="icon-cg-0" data-fill-palette-color="accent" id="cg-0"><path fill="#000000" d="M98.746 60.794c0.007-0.05-0.008-0.097-0.008-0.146-0.002-0.061 0.004-0.121-0.01-0.18-0.013-0.057-0.04-0.107-0.063-0.161-0.022-0.053-0.04-0.105-0.072-0.151-0.033-0.049-0.077-0.085-0.118-0.125-0.041-0.041-0.078-0.084-0.127-0.116s-0.105-0.048-0.16-0.071c-0.047-0.02-0.086-0.049-0.137-0.061l-1.16-0.259 0.343-0.824c0.014-0.034 0.011-0.07 0.021-0.105 0.013-0.045 0.035-0.085 0.041-0.133l0.109-0.904c0.005-0.045-0.01-0.085-0.012-0.13 0-0.043 0.012-0.083 0.005-0.126l-0.15-0.897c-0.007-0.044-0.032-0.078-0.046-0.119-0.013-0.041-0.012-0.083-0.031-0.123l-0.393-0.812c-0.008-0.018-0.025-0.029-0.035-0.047-0.011-0.02-0.012-0.041-0.023-0.059l-7.758-11.717c-0.01-0.015-0.025-0.022-0.036-0.037-0.038-0.05-0.083-0.088-0.128-0.129-0.043-0.038-0.083-0.077-0.131-0.105-0.049-0.028-0.1-0.044-0.151-0.062-0.058-0.021-0.11-0.043-0.171-0.052-0.052-0.008-0.104-0.003-0.157-0.001-0.063 0.001-0.126 0.002-0.19 0.019-0.018 0.004-0.033 0-0.049 0.005L84.9 44.098l0.832-0.653c0.035-0.029 0.055-0.068 0.084-0.101 0.021-0.022 0.052-0.031 0.07-0.057l0.692-0.895c0.011-0.014 0.013-0.03 0.022-0.044 0.035-0.052 0.072-0.103 0.098-0.164l0.435-1.055c0.013-0.033 0.01-0.066 0.019-0.1 0.014-0.042 0.035-0.079 0.041-0.124l0.15-1.125c0.006-0.042-0.008-0.079-0.008-0.119 0-0.041 0.014-0.078 0.008-0.119l-0.15-1.126c-0.006-0.039-0.027-0.07-0.037-0.107-0.01-0.039-0.007-0.079-0.022-0.117l-0.435-1.052c-0.016-0.038-0.045-0.063-0.065-0.098-0.021-0.035-0.027-0.074-0.052-0.106l-0.691-0.902c-0.025-0.032-0.06-0.048-0.087-0.075-0.026-0.027-0.043-0.062-0.075-0.087l-0.885-0.69c-0.032-0.025-0.072-0.033-0.107-0.053-0.035-0.021-0.061-0.052-0.1-0.068l-1.062-0.443c-0.039-0.016-0.08-0.013-0.121-0.023-0.038-0.01-0.07-0.033-0.111-0.038l-1.129-0.145c-0.039-0.004-0.074 0.008-0.113 0.008s-0.075-0.013-0.115-0.008l-1.129 0.145c-0.042 0.005-0.075 0.028-0.115 0.039-0.039 0.01-0.08 0.007-0.118 0.023l-1.06 0.443c-0.039 0.016-0.064 0.046-0.1 0.067-0.033 0.021-0.073 0.027-0.105 0.053l-0.889 0.69c-0.031 0.025-0.047 0.059-0.074 0.087-0.026 0.027-0.062 0.043-0.085 0.074l-0.696 0.902c-0.025 0.033-0.032 0.073-0.053 0.108-0.02 0.035-0.051 0.061-0.066 0.099l-0.434 1.052c-0.016 0.038-0.012 0.078-0.023 0.117-0.01 0.037-0.031 0.068-0.036 0.107l-0.15 1.126c-0.005 0.041 0.008 0.079 0.008 0.119 0 0.04-0.013 0.078-0.008 0.119l0.15 1.125c0.006 0.045 0.028 0.083 0.041 0.125 0.009 0.032 0.005 0.065 0.019 0.098l0.434 1.055c0.025 0.064 0.064 0.117 0.103 0.171 0.009 0.012 0.01 0.027 0.02 0.04l0.018 0.022c0 0 0.001 0.001 0.001 0.002l0.678 0.871c0.02 0.024 0.048 0.034 0.068 0.056 0.031 0.033 0.05 0.072 0.086 0.1l0.888 0.696c0.046 0.036 0.099 0.055 0.148 0.081 0.024 0.013 0.042 0.034 0.067 0.044l1.059 0.432c0.039 0.016 0.078 0.013 0.117 0.023 0.035 0.01 0.066 0.031 0.105 0.036l0.386 0.051-0.224 0.101c-0.034 0.015-0.057 0.043-0.087 0.062-0.03 0.018-0.063 0.023-0.093 0.045l-5.006 3.843c-0.02 0.014-0.027 0.035-0.045 0.05-0.018 0.016-0.04 0.022-0.057 0.04l-1.73 1.799c-0.018 0.019-0.023 0.042-0.04 0.062-0.036 0.045-0.065 0.096-0.094 0.148-0.03 0.057-0.056 0.109-0.072 0.169-0.006 0.023-0.022 0.041-0.027 0.065l-0.603 2.943-39.965-8.242v-3.026l0.392-0.492c0.025-0.032 0.033-0.071 0.054-0.106 0.032-0.054 0.063-0.104 0.083-0.164 0.02-0.055 0.026-0.109 0.034-0.166 0.008-0.058 0.017-0.112 0.013-0.171-0.002-0.062-0.018-0.119-0.034-0.178-0.01-0.04-0.007-0.08-0.023-0.118l-0.588-1.427c-0.012-0.029-0.036-0.049-0.051-0.076-0.015-0.027-0.017-0.057-0.034-0.083l-3.467-5.168-1.306-2.374c-0.001-0.001-0.003-0.002-0.003-0.003-0.032-0.056-0.083-0.1-0.125-0.148-0.037-0.042-0.066-0.091-0.108-0.125-0.001-0.001-0.002-0.003-0.004-0.004l-0.301-0.23 0.873 0.116c0.04 0.005 0.079 0.007 0.117 0.008h0.001 0 0.001 0.001c0.039 0 0.077-0.003 0.117-0.008l1.081-0.144c0.039-0.005 0.069-0.027 0.105-0.037 0.04-0.01 0.079-0.007 0.118-0.023l1.003-0.413c0.025-0.01 0.041-0.031 0.064-0.043 0.046-0.023 0.096-0.04 0.139-0.073l0.863-0.657c0.039-0.03 0.06-0.071 0.093-0.105 0.022-0.024 0.053-0.034 0.075-0.061l0.668-0.867c0.01-0.014 0.012-0.031 0.022-0.045 0.036-0.052 0.074-0.103 0.098-0.164l0.412-1.011c0.013-0.031 0.009-0.063 0.019-0.095 0.012-0.04 0.033-0.074 0.039-0.116l0.158-1.082c0.006-0.044-0.007-0.086-0.007-0.13 0-0.043 0.013-0.084 0.007-0.129l-0.158-1.083c-0.005-0.038-0.027-0.068-0.037-0.104-0.011-0.037-0.007-0.075-0.022-0.111l-0.412-0.997c-0.016-0.038-0.045-0.062-0.065-0.097-0.02-0.036-0.028-0.076-0.053-0.109l-0.668-0.866c-0.025-0.032-0.061-0.048-0.089-0.077-0.027-0.028-0.044-0.062-0.076-0.087l-0.863-0.663c-0.032-0.025-0.071-0.032-0.105-0.052-0.033-0.019-0.058-0.048-0.094-0.063l-1.004-0.423C30.11 22.007 30.07 22.01 30.031 22c-0.04-0.011-0.073-0.034-0.115-0.04l-1.08-0.141c-0.041-0.005-0.078 0.008-0.117 0.008s-0.076-0.013-0.117-0.008l-1.08 0.141c-0.042 0.006-0.076 0.029-0.116 0.04-0.04 0.011-0.079 0.008-0.118 0.024l-1 0.423c-0.037 0.015-0.062 0.045-0.095 0.064-0.033 0.02-0.071 0.026-0.103 0.051l-0.863 0.663c-0.031 0.023-0.046 0.058-0.074 0.084-0.027 0.027-0.062 0.042-0.086 0.074l-0.678 0.865c-0.026 0.034-0.034 0.074-0.056 0.11-0.021 0.036-0.052 0.062-0.067 0.101l-0.413 0.997c-0.016 0.038-0.012 0.077-0.023 0.116-0.011 0.037-0.033 0.068-0.038 0.107l-0.147 1.084c-0.005 0.042 0.008 0.08 0.008 0.121s-0.013 0.079-0.008 0.121l0.147 1.082c0.006 0.044 0.028 0.081 0.04 0.123 0.009 0.032 0.005 0.065 0.019 0.097l0.331 0.809-0.589-0.451c-0.03-0.023-0.066-0.029-0.098-0.047-0.053-0.032-0.104-0.06-0.164-0.081-0.059-0.02-0.118-0.028-0.179-0.036-0.037-0.004-0.069-0.021-0.107-0.021h-0.808c-0.031 0-0.058 0.015-0.088 0.018-0.059 0.006-0.114 0.018-0.172 0.035-0.061 0.019-0.115 0.042-0.17 0.072-0.025 0.014-0.054 0.017-0.079 0.033l-8.884 6.097 0 0L9.16 37.107c-0.003 0.002-0.005 0.006-0.009 0.008-0.049 0.032-0.085 0.083-0.128 0.125-0.042 0.043-0.091 0.079-0.124 0.128-0.003 0.003-0.006 0.005-0.009 0.009l-0.847 1.318c-0.014 0.022-0.015 0.048-0.027 0.07-0.028 0.053-0.047 0.108-0.065 0.167-0.017 0.059-0.031 0.116-0.035 0.177-0.002 0.025-0.015 0.047-0.015 0.073v1.453l-2.933-0.589c-0.122-0.024-0.244-0.023-0.358 0-0.343 0.07-0.628 0.339-0.702 0.705l-1.146 5.699c-0.098 0.487 0.218 0.962 0.705 1.06l14.022 2.818 6.382 10.593c0.009 0.015 0.022 0.025 0.031 0.039 0.02 0.028 0.042 0.053 0.063 0.078 0.037 0.043 0.076 0.081 0.118 0.115 0.025 0.02 0.048 0.039 0.075 0.055 0.05 0.032 0.102 0.058 0.157 0.079 0.025 0.009 0.049 0.022 0.075 0.03 0.082 0.023 0.164 0.038 0.25 0.038 0.001 0 0.002 0.001 0.003 0.001l0 0c0.001 0 0.001 0 0.001 0 0.088 0 0.176-0.016 0.262-0.043 0.007-0.002 0.013-0.001 0.02-0.003l5.356-1.769c0.022-0.007 0.038-0.024 0.059-0.033 0.018-0.008 0.038-0.004 0.056-0.014 0.037-0.018 0.061-0.049 0.094-0.072 0.05-0.033 0.099-0.066 0.141-0.108 0.042-0.041 0.072-0.087 0.105-0.134 0.031-0.049 0.062-0.096 0.084-0.148 0.022-0.053 0.035-0.107 0.046-0.164 0.012-0.057 0.023-0.109 0.024-0.168 0-0.061-0.011-0.119-0.022-0.18-0.008-0.039-0.002-0.076-0.014-0.115-0.007-0.02-0.023-0.033-0.031-0.053-0.008-0.021-0.006-0.041-0.016-0.062l-2.758-5.604 19.101 4.076v0.424l-3.976 3.207c-0.012 0.011-0.018 0.025-0.03 0.037-0.047 0.043-0.083 0.094-0.121 0.145-0.032 0.045-0.066 0.085-0.09 0.133-0.024 0.05-0.033 0.104-0.047 0.158-0.017 0.061-0.034 0.118-0.037 0.182-0.001 0.017-0.01 0.029-0.01 0.047v15.745c0 0.497 0.403 0.9 0.9 0.9h9.45c0.497 0 0.899-0.403 0.899-0.9V61.094c0-0.006-0.003-0.011-0.003-0.016-0.001-0.074-0.023-0.144-0.043-0.215-0.011-0.043-0.013-0.089-0.03-0.129-0.018-0.041-0.051-0.072-0.074-0.11-0.039-0.062-0.074-0.126-0.127-0.177-0.005-0.004-0.006-0.01-0.01-0.014l-3.047-2.82 22.976 4.662-4.272 4.553c-0.17 0.182-0.25 0.415-0.243 0.646 0.001 0.022 0.013 0.043 0.015 0.065 0.023 0.207 0.105 0.408 0.27 0.562 0 0 0.002 0 0.002 0.001l3.421 3.204c0.043 0.041 0.096 0.061 0.144 0.092 0.035 0.021 0.065 0.048 0.104 0.064 0.117 0.054 0.242 0.088 0.368 0.088 0 0 0 0 0.001 0l0 0c0.106 0 0.212-0.025 0.314-0.064 0.031-0.012 0.059-0.029 0.089-0.044 0.038-0.019 0.079-0.031 0.115-0.058l9.849-6.969 12.975 2.549c0.01 0.002 0.021 0 0.029 0.002 0.005 0.002 0.008 0.004 0.012 0.005 0.045 0.006 0.09 0.01 0.133 0.01 0.107 0 0.212-0.021 0.31-0.057 0.032-0.011 0.058-0.035 0.089-0.05 0.062-0.031 0.124-0.061 0.178-0.104 0.031-0.026 0.053-0.062 0.08-0.093 0.043-0.047 0.087-0.09 0.118-0.143 0.022-0.041 0.032-0.088 0.05-0.131 0.02-0.05 0.048-0.096 0.059-0.15 0.002-0.006-0.001-0.013 0-0.02 0.001-0.008 0.006-0.014 0.007-0.021L98.746 60.794zM96.3 65.016l-12.427-2.44c-0.004-0.001-0.008 0.001-0.011 0-0.08-0.015-0.161-0.006-0.243 0.001-0.036 0.004-0.074-0.004-0.108 0.002-0.027 0.007-0.052 0.025-0.079 0.034-0.085 0.027-0.17 0.058-0.242 0.108-0.003 0.002-0.006 0.002-0.01 0.003l-9.564 6.769-2.229-2.088 4.761-5.075c0.018-0.019 0.023-0.044 0.04-0.063 0.043-0.055 0.078-0.111 0.107-0.176 0.021-0.042 0.038-0.083 0.051-0.127 0.008-0.025 0.022-0.045 0.027-0.07 0.008-0.035-0.002-0.066 0-0.102 0.006-0.062 0.008-0.12 0-0.182-0.007-0.059-0.02-0.111-0.037-0.165-0.018-0.055-0.037-0.105-0.065-0.157-0.029-0.054-0.065-0.102-0.105-0.148-0.022-0.025-0.032-0.059-0.058-0.082-0.018-0.016-0.039-0.021-0.058-0.035-0.048-0.039-0.101-0.068-0.156-0.096-0.052-0.027-0.103-0.053-0.158-0.068-0.022-0.006-0.042-0.021-0.065-0.027l-25.812-5.234c-0.032-0.007-0.061 0.002-0.092-0.002-0.03-0.002-0.056-0.018-0.087-0.018-0.03 0-0.055 0.015-0.083 0.018-0.067 0.006-0.128 0.018-0.191 0.039-0.049 0.016-0.094 0.033-0.14 0.059-0.056 0.028-0.105 0.062-0.155 0.104-0.041 0.033-0.077 0.07-0.111 0.11-0.019 0.022-0.045 0.037-0.062 0.062-0.001-0.007-0.003-0.012-0.004-0.02-0.005-0.06-0.017-0.115-0.035-0.174-0.017-0.055-0.036-0.107-0.063-0.158-0.026-0.051-0.058-0.095-0.094-0.14-0.037-0.045-0.074-0.085-0.119-0.122-0.043-0.037-0.089-0.066-0.14-0.096-0.053-0.029-0.106-0.053-0.165-0.071-0.027-0.009-0.049-0.027-0.078-0.034l-21.628-4.615c-0.04-0.009-0.077 0.002-0.117-0.001-0.061-0.005-0.119-0.01-0.179-0.002-0.065 0.008-0.123 0.027-0.184 0.048-0.035 0.012-0.071 0.011-0.105 0.028-0.016 0.008-0.025 0.022-0.04 0.031-0.057 0.032-0.104 0.073-0.152 0.116-0.041 0.037-0.082 0.07-0.115 0.112-0.033 0.043-0.055 0.092-0.081 0.143-0.029 0.057-0.058 0.11-0.075 0.172-0.004 0.018-0.017 0.03-0.021 0.047-0.008 0.037 0.002 0.072 0 0.109-0.006 0.063-0.011 0.125-0.003 0.188 0.008 0.062 0.026 0.118 0.047 0.176 0.012 0.037 0.011 0.075 0.029 0.11l3.121 6.343-3.692 1.219-6.216-10.317c-0.004-0.006-0.01-0.009-0.014-0.015-0.036-0.058-0.089-0.102-0.138-0.15-0.035-0.035-0.063-0.077-0.103-0.104-0.037-0.026-0.083-0.038-0.126-0.058-0.064-0.032-0.125-0.067-0.195-0.083-0.006-0.001-0.012-0.006-0.018-0.007L4.705 45.922l0.791-3.934 3.432 0.689c0.056 0.011 0.112 0.016 0.168 0.016 0.002 0 0.005 0.002 0.009 0.002 0.078 0 0.157-0.011 0.236-0.032 0.011-0.003 0.019-0.011 0.03-0.015 0.087-0.027 0.166-0.069 0.24-0.12 0.017-0.012 0.039-0.018 0.055-0.031 0.084-0.068 0.156-0.151 0.212-0.246 0.017-0.028 0.023-0.062 0.036-0.091 0.028-0.061 0.06-0.12 0.074-0.188 0.001-0.01-0.002-0.019 0-0.028 0.01-0.058 0.001-0.116 0-0.176-0.003-0.062 0.001-0.123-0.012-0.182-0.002-0.009 0-0.018-0.002-0.027l-0.272-1.004v-1.109l0.599-0.932 3.52-2.268c0.003-0.002 0.005-0.006 0.009-0.009s0.009-0.003 0.012-0.006l8.675-5.954h0.223l4.046 3.1 1.233 2.241c0.008 0.015 0.021 0.026 0.03 0.041 0.005 0.009 0.005 0.019 0.012 0.027l3.437 5.125 0.354 0.855-0.258 0.324c-0.025 0.031-0.033 0.069-0.052 0.102-0.033 0.054-0.064 0.105-0.085 0.165-0.02 0.06-0.028 0.119-0.036 0.18-0.005 0.039-0.023 0.074-0.023 0.114v0.253c-0.141-0.119-0.315-0.194-0.51-0.208l-5.547-6.75c-0.008-0.01-0.021-0.014-0.028-0.023-0.009-0.009-0.011-0.022-0.02-0.031-0.034-0.035-0.078-0.051-0.116-0.08-0.049-0.037-0.095-0.078-0.149-0.103-0.051-0.024-0.104-0.033-0.158-0.047-0.058-0.015-0.113-0.034-0.173-0.037-0.057-0.003-0.11 0.008-0.167 0.016-0.059 0.008-0.115 0.011-0.172 0.03-0.057 0.019-0.105 0.054-0.158 0.084-0.041 0.024-0.087 0.035-0.125 0.066-0.01 0.008-0.013 0.02-0.023 0.028s-0.022 0.011-0.032 0.02l-4.44 4.293c-0.021 0.021-0.029 0.047-0.047 0.069-0.041 0.047-0.073 0.096-0.103 0.149-0.027 0.05-0.051 0.099-0.068 0.153-0.018 0.055-0.028 0.109-0.035 0.167-0.007 0.058-0.011 0.112-0.006 0.17 0.003 0.056 0.014 0.109 0.029 0.165 0.015 0.06 0.035 0.115 0.063 0.171 0.013 0.025 0.014 0.053 0.029 0.077l2.625 4.234c0.006 0.01 0.016 0.018 0.023 0.028 0.013 0.02 0.029 0.035 0.044 0.054 0.054 0.069 0.117 0.127 0.186 0.175 0.018 0.013 0.033 0.026 0.052 0.038 0.089 0.054 0.187 0.09 0.289 0.11 0.009 0.001 0.016 0.008 0.024 0.009l7.997 1.325c0.048 0.008 0.098 0.012 0.146 0.012 0 0 0 0 0 0l0 0c0.001 0 0.001 0 0.001 0 0.116 0 0.226-0.025 0.33-0.066 0.038-0.015 0.067-0.04 0.102-0.059 0.062-0.035 0.121-0.069 0.173-0.117 0.007-0.007 0.017-0.009 0.023-0.016 0.016 0.047 0.036 0.089 0.059 0.133 0.027 0.051 0.059 0.096 0.095 0.141 0.037 0.045 0.075 0.085 0.12 0.122 0.043 0.037 0.089 0.066 0.14 0.094 0.053 0.03 0.106 0.052 0.166 0.071 0.029 0.009 0.052 0.028 0.082 0.035l41.566 8.573c0.061 0.013 0.122 0.018 0.183 0.018 0.142 0 0.273-0.044 0.396-0.104 0.031 0.043 0.076 0.072 0.115 0.111s0.072 0.084 0.12 0.116c0.05 0.033 0.112 0.048 0.17 0.071 0.05 0.02 0.094 0.052 0.149 0.062l6.737 1.363c0.06 0.013 0.118 0.018 0.177 0.02 0.001 0 0.001 0 0.002 0l0 0c0.001 0 0.001 0 0.001 0 0.003 0 0.006-0.002 0.009-0.002 0.088-0.001 0.178-0.014 0.266-0.043l3.643-1.175c0.014-0.003 0.023-0.015 0.037-0.021 0.014-0.004 0.027-0.002 0.041-0.008 0.043-0.02 0.072-0.053 0.111-0.077 0.053-0.033 0.105-0.062 0.148-0.103 0.043-0.039 0.072-0.086 0.105-0.133 0.034-0.047 0.069-0.092 0.094-0.146 0.023-0.051 0.033-0.105 0.047-0.161s0.029-0.11 0.032-0.169c0.003-0.06-0.011-0.117-0.02-0.178-0.008-0.045-0.001-0.091-0.016-0.137-0.005-0.014-0.016-0.023-0.021-0.037s-0.004-0.027-0.008-0.04l-2.514-5.885c-0.01-0.021-0.027-0.033-0.037-0.052-0.01-0.019-0.01-0.039-0.02-0.057-0.021-0.035-0.054-0.055-0.078-0.085-0.039-0.049-0.076-0.096-0.123-0.135-0.045-0.037-0.092-0.063-0.141-0.091-0.051-0.028-0.102-0.055-0.158-0.073-0.053-0.018-0.105-0.024-0.162-0.031-0.059-0.007-0.115-0.014-0.175-0.01-0.058 0.004-0.113 0.021-0.171 0.036-0.039 0.011-0.08 0.008-0.117 0.025-0.02 0.008-0.031 0.025-0.051 0.035-0.02 0.009-0.04 0.009-0.059 0.021l-7.234 4.334 0.312-1.533 1.506-1.563 4.867-3.736 1.185-0.532h1.747c0.001 0 0.002 0 0.002 0 0.088 0 0.176-0.013 0.264-0.04l2.787-0.855 7.355 11.108 0.308 0.639 0.108 0.644-0.078 0.653-0.256 0.612-0.472 0.622c-0.022 0.029-0.028 0.064-0.046 0.096-0.031 0.053-0.06 0.104-0.08 0.164-0.02 0.061-0.029 0.12-0.037 0.182-0.003 0.035-0.02 0.066-0.02 0.103v0.237c0 0.028 0.014 0.052 0.016 0.079 0.006 0.062 0.019 0.12 0.036 0.179 0.017 0.055 0.035 0.105 0.062 0.156 0.027 0.051 0.059 0.095 0.094 0.14 0.037 0.046 0.074 0.087 0.119 0.126 0.043 0.035 0.088 0.064 0.139 0.093 0.053 0.03 0.105 0.054 0.164 0.073 0.027 0.009 0.048 0.027 0.076 0.033l1.523 0.34L96.3 65.016zM52.289 75.939h-7.65V61.523l3.976-3.207c0.012-0.01 0.018-0.025 0.03-0.035 0.047-0.043 0.083-0.094 0.122-0.146 0.017-0.023 0.042-0.043 0.057-0.068 0 0.003 0 0.006 0.001 0.009 0.012 0.043 0.013 0.089 0.03 0.128 0.018 0.041 0.051 0.073 0.075 0.111 0.04 0.062 0.075 0.125 0.127 0.177 0.004 0.003 0.005 0.009 0.01 0.013l3.223 2.982V75.939zM29.563 23.73l0.782 0.329 0.679 0.521 0.524 0.679 0.323 0.781 0.123 0.842-0.123 0.843-0.325 0.797L31.025 29.2l-0.673 0.513-0.787 0.324-0.847 0.112-0.844-0.112-0.785-0.324-0.677-0.515-0.529-0.677-0.324-0.79-0.114-0.848 0.114-0.848 0.321-0.773 0.534-0.68 0.681-0.523 0.78-0.33 0.843-0.11L29.563 23.73zM23.377 44.126l-2.028-3.27 3.218-3.111 5.188 6.312c0.009 0.011 0.022 0.014 0.031 0.024 0.041 0.045 0.089 0.079 0.139 0.115v1.014L23.377 44.126zM82.434 51.081l1.722 4.028-2.479 0.799-5.458-1.104L82.434 51.081zM82.991 36.324l0.841 0.35 0.699 0.545 0.549 0.716 0.346 0.835 0.118 0.89-0.12 0.891-0.344 0.836-0.547 0.709-0.699 0.549-0.838 0.34-0.897 0.118L81.2 42.987l-0.833-0.34-0.704-0.551-0.552-0.708-0.342-0.834-0.119-0.893 0.119-0.891 0.344-0.833 0.551-0.716 0.703-0.547 0.838-0.35 0.894-0.115L82.991 36.324z" data-fill-palette-color="accent"></path></svg></g></svg></g></svg></g></svg></g></svg></g><g></g></svg></g></svg></g><g><path d="M78.592 96.476A122.216 122.216 0 0 1 316.928 96.476L315.035 96.476A120.323 120.323 0 0 0 80.485 96.476L78.592 96.476M78.592 150.724A122.216 122.216 0 0 0 316.928 150.724L315.035 150.724A120.323 120.323 0 0 1 80.485 150.724L78.592 150.724" fill="#000000" stroke="transparent" data-fill-palette-color="tertiary"></path></g></svg></g><defs></defs></svg><rect width="395.52" height="247.2" fill="none" stroke="none" visibility="hidden"></rect></g></svg></g></svg>